<?xml version="1.0" standalone="no"?>
<!DOCTYPE svg PUBLIC "-//W3C//DTD SVG 20010904//EN"
 "http://www.w3.org/TR/2001/REC-SVG-20010904/DTD/svg10.dtd">
<svg version="1.0" xmlns="http://www.w3.org/2000/svg"
 width="900.000000pt" height="512.000000pt" viewBox="0 0 900.000000 512.000000"
 preserveAspectRatio="xMidYMid meet">

<g transform="translate(0.000000,512.000000) scale(0.100000,-0.100000)"
fill="#000000" stroke="none">
<path d="M2878 5110 c-149 -25 -277 -136 -328 -284 -20 -59 -20 -78 -20 -2266
0 -2192 0 -2207 20 -2266 53 -154 182 -261 342 -284 83 -12 3133 -13 3215 -1
162 24 289 130 344 288 19 55 19 98 19 1799 l0 1742 -39 49 c-21 26 -301 310
-622 630 -499 497 -590 583 -624 592 -47 13 -2231 13 -2307 1z m2122 -805 c0
-580 0 -574 55 -625 l27 -25 554 -3 554 -2 0 -1633 c0 -1621 0 -1632 -20
-1665 -12 -20 -38 -41 -64 -53 -43 -19 -78 -19 -1618 -17 -1561 3 -1573 3
-1608 23 -19 12 -43 36 -52 55 -17 33 -18 159 -18 2203 0 1898 2 2172 15 2197
16 31 58 65 90 73 11 2 485 5 1053 6 l1032 1 0 -535z m645 -25 l350 -350 -358
0 -357 0 0 350 c0 193 3 350 8 350 4 0 165 -157 357 -350z"/>
<path d="M3834 4389 c-49 -14 -92 -70 -100 -129 -7 -54 -5 -52 -84 -65 -103
-16 -211 -100 -263 -205 -120 -240 22 -517 288 -560 33 -5 101 -10 152 -10 51
0 103 -5 116 -11 29 -13 57 -58 57 -94 0 -33 -24 -80 -47 -91 -10 -5 -130 -11
-268 -14 -242 -5 -251 -6 -283 -28 -90 -64 -80 -195 18 -244 28 -15 62 -18
173 -18 l137 0 0 -32 c1 -58 34 -114 81 -138 104 -53 209 20 209 147 0 47 1
48 43 66 63 25 139 97 175 164 81 153 54 340 -66 460 -91 91 -190 123 -384
123 -94 0 -97 1 -127 31 -52 51 -39 135 26 168 14 7 102 11 253 11 193 0 238
3 266 16 72 34 103 126 66 194 -28 53 -89 80 -179 80 l-73 0 0 38 c0 97 -94
168 -186 141z"/>
<path d="M4483 2981 c-90 -56 -96 -165 -13 -235 l32 -26 560 0 c545 0 562 1
593 20 76 47 86 154 21 219 l-36 36 -563 3 c-543 2 -563 2 -594 -17z"/>
<path d="M3343 2390 c-89 -54 -83 -199 10 -243 32 -16 129 -17 1147 -17 1232
0 1157 -4 1200 65 40 65 20 152 -46 196 -28 18 -69 19 -1154 19 -1098 0 -1126
-1 -1157 -20z"/>
<path d="M3377 1816 c-20 -8 -44 -20 -53 -27 -50 -42 -60 -139 -18 -189 54
-64 -25 -60 1191 -60 1035 0 1110 1 1143 18 102 51 107 195 8 249 -31 17 -95
18 -1133 20 -903 2 -1107 0 -1138 -11z"/>
<path d="M3376 1230 c-64 -20 -101 -79 -94 -152 6 -55 33 -92 85 -114 27 -12
223 -14 1135 -14 1030 0 1105 1 1138 18 99 49 107 188 13 249 -26 17 -86 18
-1138 20 -610 1 -1123 -2 -1139 -7z"/>
</g>
</svg>
